{"title":"Rent-A-Kid (1995) Fred Gerber.mp4","uid":8889627,"size":267149629,"categoryP":"video","categoryS":"movies","magnet":"?xt=urn:btih:46ac4c38772a1fd86b05be7ba9822676289aa4db&amp;dn=Rent-A-Kid+%281995%29+Fred+Gerber.mp4&amp;tr=udp%3A%2F%2Ftracker.openbittorrent.com%3A80&amp;tr=udp%3A%2F%2Fopen.demonii.com%3A1337&amp;tr=udp%3A%2F%2Ftracker.coppersurfer.tk%3A6969&amp;tr=udp%3A%2F%2Fexodus.desync.com%3A6969","seeders":2,"leechers":0,"uploader":"yousef86","files":-1,"time":1378551082,"description":"::Release Info::\n================\nRelease Title: Rent-A-Kid (1995) Fred Gerber\nEncode date: UTC 2012-04-21 11:52:07\n\n::IMDB and TMDB Info::\n======================\nTMDB Link: http://www.themoviedb.org/movie/36357\nIMDB Link: http://www.imdb.com/title/tt0114268\nStoryline: An outrageous, streetwise salesman comes up with an unusual new way for an orphanage to &quot;move the merchandise.&quot; Along the way the salesman will find out the true meaning of family.\nGenre:\nRelease date: 01/01/1995\n\n::Actors::\n==========\nLeslie Nielsen ... Harry Haber\nChristopher Lloyd ... Lawrence 'Larry' Kayvey\nMatt McCoy ... Russ Syracuse\nSherry Miller ... Valerie Syracuse\nAmos Crawley ... Brandon Ward\n\nGeneral\n=======\nComplete name : Rent-A-Kid (1995) Fred Gerber.mp4\nFormat : MPEG-4\nFormat profile : Base Media / Version 2\nCodec ID : mp42\nFile size : 255 MiB\nDuration : 1h 25mn\nOverall bit rate mode : Variable\nOverall bit rate : 415 Kbps\nEncoded date : UTC 2012-04-21 11:52:07\nTagged date : UTC 2012-04-21 11:52:07\ngsst : 0\ngstd : 5152995\ngssd : B52947508HH1378462046986515\ngshh :\n\nVideo\n=====\nID : 1\nFormat : AVC\nFormat/Info : Advanced Video Codec\nFormat profile : &lt;a class=&quot;__cf_email__&quot; href=&quot;/cdn-cgi/l/email-protection&quot; data-cfemail=&quot;03416270666f6a6d66434f302d33&quot;&gt;[email&amp;#160;protected]&lt;/a&gt;&lt;script cf-hash='f9e31' type=&quot;text/javascript&quot;&gt;\n/* &lt;![CDATA[ */!function(){try{var t=&quot;currentScript&quot;in document?document.currentScript:function(){for(var t=document.getElementsByTagName(&quot;script&quot;),e=t.length;e--;)if(t[e].getAttribute(&quot;cf-hash&quot;))return t[e]}();if(t&amp;&amp;t.previousSibling){var e,r,n,i,c=t.previousSibling,a=c.getAttribute(&quot;data-cfemail&quot;);if(a){for(e=&quot;&quot;,r=parseInt(a.substr(0,2),16),n=2;a.length-n;n+=2)i=parseInt(a.substr(n,2),16)^r,e+=String.fromCharCode(i);e=document.createTextNode(e),c.parentNode.replaceChild(e,c)}}}catch(u){}}();/* ]]&gt; */&lt;/script&gt;\nFormat settings, CABAC : No\nFormat settings, ReFrames : 1 frame\nFormat settings, GOP : M=1, N=30\nCodec ID : avc1\nCodec ID/Info : Advanced Video Coding\nDuration : 1h 25mn\nBit rate : 316 Kbps\nMaximum bit rate : 1 657 Kbps\nWidth : 640 pixels\nHeight : 360 pixels\nDisplay aspect ratio : 16:9\nFrame rate mode : Constant\nFrame rate : 29.970 fps\nColor space : YUV\nChroma subsampling : 4:2:0\nBit depth : 8 bits\nScan type : Progressive\nBits/(Pixel*Frame) : 0.046\nStream size : 194 MiB (76%)\nTagged date : UTC 2012-04-21 11:52:09\n\nAudio\n=====\nID : 2\nFormat : AAC\nFormat/Info : Advanced Audio Codec\nFormat profile : LC\nCodec ID : 40\nDuration : 1h 25mn\nBit rate mode : Variable\nBit rate : 96.0 Kbps\nMaximum bit rate : 118 Kbps\nChannel(s) : 2 channels\nChannel positions : Front: L R\nSampling rate : 44.1 KHz\nCompression mode : Lossy\nStream size : 59.0 MiB (23%)\nTitle : IsoMedia File Produced by Google, 5-11-2011\nEncoded date : UTC 2012-04-21 11:52:08\nTagged date : UTC 2012-04-21 11:52:09","torrent":{"xt":"urn:btih:46ac4c38772a1fd86b05be7ba9822676289aa4db","amp;dn":"Rent-A-Kid+%281995%29+Fred+Gerber.mp4","amp;tr":["udp%3A%2F%2Ftracker.openbittorrent.com%3A80","udp%3A%2F%2Fopen.demonii.com%3A1337","udp%3A%2F%2Ftracker.coppersurfer.tk%3A6969","udp%3A%2F%2Fexodus.desync.com%3A6969"],"infoHash":"46ac4c38772a1fd86b05be7ba9822676289aa4db","infoHashBuffer":{"type":"Buffer","data":[70,172,76,56,119,42,31,216,107,5,190,123,169,130,38,118,40,154,164,219]},"announce":[],"urlList":[]}}